<?xml version="1.0" standalone="no"?>
<!DOCTYPE svg PUBLIC "-//W3C//DTD SVG 20010904//EN"
 "http://www.w3.org/TR/2001/REC-SVG-20010904/DTD/svg10.dtd">
<svg version="1.0" xmlns="http://www.w3.org/2000/svg"
 width="2441.000000pt" height="2441.000000pt" viewBox="0 0 2441.000000 2441.000000"
 preserveAspectRatio="xMidYMid meet">
<metadata>
Created by potrace 1.11, written by Peter Selinger 2001-2013
</metadata>
<g transform="translate(0.000000,2441.000000) scale(0.100000,-0.100000)"
fill="#000000" stroke="none">
<path d="M12124 24348 l1 -63 60 0 60 0 3 63 3 62 -64 0 -64 0 1 -62z"/>
<path d="M12126 24031 c-1 -4 -2 -31 -2 -61 l1 -55 63 -3 62 -3 0 61 c0 33 -3
61 -7 61 -27 5 -115 4 -117 0z"/>
<path d="M12124 23598 l1 -63 60 0 60 0 3 63 3 62 -64 0 -64 0 1 -62z"/>
<path d="M12129 23286 c-1 -1 -2 -29 -4 -63 l-3 -63 64 0 64 0 0 63 0 62 -60
1 c-33 0 -60 0 -61 0z"/>
<path d="M12127 22903 c-3 -5 -4 -33 -3 -63 l1 -55 50 -1 c74 0 75 1 75 67 l0
59 -59 0 c-33 0 -62 -3 -64 -7z"/>
<path d="M12124 22473 l1 -63 63 0 63 0 -3 62 -3 63 -61 0 -61 0 1 -62z"/>
<path d="M12124 22101 c-1 -67 2 -69 76 -66 l45 1 3 62 3 62 -63 0 -64 0 0
-59z"/>
<path d="M12129 21786 c-1 -1 -3 -29 -3 -63 l-2 -63 63 0 63 0 0 60 c0 33 -3
61 -7 61 -9 2 -112 6 -114 5z"/>
<path d="M2939 21522 c-14 -2 -15 -280 -15 -2440 l1 -2437 146 -2 147 -3 0
2243 c1 1233 1 2266 2 2295 l0 52 2303 0 2302 0 -2 137 c0 76 -1 143 -2 148
-1 7 -819 10 -2434 10 -1338 0 -2440 -1 -2448 -3z m4821 -145 l0 -84 -2282 0
-2281 0 -21 -24 -21 -24 0 -2268 c0 -1506 -3 -2267 -10 -2268 -5 -1 -42 -2
-82 -3 -65 -2 -72 0 -75 19 -2 17 -2 4725 1 4733 1 1 1074 2 2386 2 l2385 0 0
-83z"/>
<path d="M16574 21521 c-2 -2 -4 -69 -4 -148 l0 -143 2293 0 2293 0 0 -2302 0
-2303 135 -1 c73 0 140 2 147 4 9 3 12 502 12 2448 0 1344 -3 2444 -7 2445
-28 3 -4866 3 -4869 0z m4812 -2440 c-1 -1309 -4 -2382 -7 -2386 -5 -5 -102
-9 -146 -6 -10 1 -13 462 -13 2270 0 1397 -4 2279 -9 2294 -6 14 -20 28 -31
32 -12 4 -1041 7 -2286 7 l-2264 0 0 84 0 84 2378 0 2378 0 0 -2379z"/>
<path d="M12124 21347 l-1 -62 63 0 64 -1 0 63 0 63 -63 0 -62 0 -1 -63z"/>
<path d="M12126 21030 c-1 -3 -2 -30 -2 -60 l1 -55 63 -3 62 -3 0 63 0 64 -61
0 c-33 0 -62 -3 -63 -6z"/>
<path d="M12124 20601 c0 -67 2 -68 76 -66 l45 0 3 63 3 62 -64 0 -64 0 1 -59z"/>
<path d="M12129 20285 c-1 0 -2 -28 -4 -62 l-2 -63 64 0 63 0 0 63 0 63 -60 0
c-33 0 -61 -1 -61 -1z"/>
<path d="M12126 19853 c1 -32 2 -60 3 -63 0 -3 27 -6 59 -5 l57 0 3 63 3 62
-63 0 -64 0 2 -57z"/>
<path d="M12129 19535 c-1 0 -2 -28 -4 -62 l-2 -63 63 0 64 0 0 63 0 64 -60
-1 c-33 0 -61 -1 -61 -1z"/>
<path d="M12124 19101 c-2 -67 -2 -67 71 -66 l50 0 3 63 3 62 -63 0 -63 0 -1
-59z"/>
<path d="M12129 18786 c-1 -1 -2 -29 -4 -63 l-2 -63 63 0 64 0 0 63 0 62 -60
1 c-33 0 -61 0 -61 0z"/>
<path d="M12124 18353 l2 -58 62 -3 62 -3 0 61 0 60 -64 0 -64 0 2 -57z"/>
<path d="M11896 14237 c-136 -320 -255 -598 -263 -617 -8 -19 -19 -44 -23 -55
-5 -11 -17 -40 -28 -65 -11 -25 -168 -389 -347 -810 -494 -1155 -565 -1322
-580 -1355 -8 -16 -53 -122 -100 -235 -48 -113 -95 -223 -105 -245 -10 -22
-50 -116 -90 -210 -158 -371 -278 -586 -401 -719 -63 -68 -96 -89 -191 -122
-70 -24 -209 -59 -250 -63 -5 -1 -8 -32 -8 -71 l0 -70 804 0 804 0 0 70 0 70
-32 1 c-17 0 -40 2 -51 4 -11 2 -45 7 -75 10 -30 3 -62 7 -70 10 -8 2 -26 6
-40 9 -148 25 -259 97 -302 195 -29 67 -21 174 26 317 20 61 122 311 227 555
105 244 193 450 196 457 4 9 212 12 992 12 l986 0 18 -41 c93 -215 344 -820
367 -886 114 -322 95 -469 -72 -567 -51 -29 -181 -62 -288 -71 -41 -3 -77 -10
-80 -15 -4 -7 -5 -61 -1 -117 1 -10 209 -13 1006 -13 l1005 0 0 70 c0 66 -1
70 -22 70 -179 3 -398 96 -506 215 -100 109 -231 341 -336 595 -26 63 -54 129
-61 145 -7 17 -77 183 -156 370 -78 187 -161 385 -184 440 -23 55 -166 399
-319 765 -153 366 -287 684 -297 708 -11 24 -33 77 -49 117 -16 40 -38 93 -48
117 -33 73 -66 152 -195 463 -69 165 -190 455 -270 645 -79 190 -159 380 -177
423 l-32 77 -66 0 -67 0 -249 -583z m208 -822 c48 -115 93 -223 101 -240 14
-32 554 -1320 624 -1487 25 -62 36 -98 28 -99 -34 -1 -1737 -4 -1737 -2 0 4
487 1137 580 1350 12 26 25 57 30 68 4 11 15 36 23 55 8 19 52 120 97 225 45
104 89 207 99 230 10 22 26 59 36 83 10 23 21 39 25 35 4 -4 46 -102 94 -218z"/>
<path d="M30 12233 l0 -64 63 3 62 3 0 50 c1 28 -1 55 -2 61 -2 6 -30 11 -63
11 l-60 0 0 -64z"/>
<path d="M406 12291 c-1 -4 -2 -31 -2 -61 l1 -55 63 -3 62 -3 0 64 0 65 -61
-1 c-33 -1 -61 -3 -63 -6z"/>
<path d="M786 12292 c-3 -3 -6 -32 -6 -64 l0 -58 63 0 63 0 0 62 -1 62 -57 2
c-31 1 -59 0 -62 -4z"/>
<path d="M1161 12291 c-4 -4 -7 -31 -7 -61 l2 -55 62 -3 62 -3 0 64 0 63 -55
0 c-30 0 -59 -2 -64 -5z"/>
<path d="M1535 12292 c-3 -3 -5 -32 -5 -64 l0 -58 63 0 63 0 -2 58 c-1 31 -2
59 -3 62 -1 7 -109 8 -116 2z"/>
<path d="M1909 12286 c-1 -6 -2 -35 -3 -63 l-1 -53 62 0 63 0 0 63 0 63 -60 1
c-38 0 -60 -3 -61 -11z"/>
<path d="M2280 12233 l0 -64 63 3 62 3 0 60 0 60 -62 1 -63 1 0 -64z"/>
<path d="M2664 12291 c-5 -3 -9 -31 -9 -61 l0 -55 63 -3 62 -3 0 63 0 64 -54
1 c-29 0 -57 -2 -62 -6z"/>
<path d="M3030 12233 l0 -64 63 3 62 3 0 60 0 60 -63 1 -62 2 0 -65z"/>
<path d="M3409 12291 c-1 -3 -2 -32 -3 -63 l-2 -58 63 0 63 0 0 63 0 63 -60 0
c-33 0 -61 -2 -61 -5z"/>
<path d="M3780 12233 l0 -63 63 0 62 0 0 60 c0 33 -4 61 -10 62 -5 0 -34 2
-62 3 l-53 1 0 -63z"/>
<path d="M4164 12292 c-5 -4 -9 -33 -9 -64 l-1 -58 64 0 63 0 -3 62 -3 62 -51
2 c-28 1 -55 -1 -60 -4z"/>
<path d="M4536 12293 c-3 -4 -6 -33 -6 -65 l0 -58 63 0 63 0 -1 63 -1 62 -56
2 c-31 1 -59 -1 -62 -4z"/>
<path d="M4907 12291 c-3 -5 -1 -76 2 -108 1 -9 20 -13 61 -13 l60 0 0 63 0
63 -60 1 c-33 0 -62 -2 -63 -6z"/>
<path d="M5285 12292 c-3 -3 -5 -32 -5 -64 l0 -58 63 0 63 0 -1 63 0 62 -57 1
c-32 0 -60 -1 -63 -4z"/>
<path d="M5658 12287 c-3 -7 -4 -34 -4 -62 l1 -50 63 -3 62 -3 0 63 0 63 -59
2 c-38 1 -61 -3 -63 -10z"/>
<path d="M6030 12233 l0 -63 60 0 60 0 0 64 0 63 -60 -1 -60 -1 0 -62z"/>
<path d="M18260 12233 l0 -63 63 0 63 0 -2 58 c-1 31 -2 59 -3 62 0 3 -28 6
-61 6 l-60 1 0 -64z"/>
<path d="M18638 12296 c0 -1 -2 -29 -3 -63 l-2 -63 64 0 63 0 0 63 0 62 -60 1
c-33 0 -61 0 -62 0z"/>
<path d="M19010 12233 l0 -63 60 0 c33 0 60 3 61 8 4 26 5 99 2 108 -2 6 -29
11 -63 10 l-60 0 0 -63z"/>
<path d="M19389 12291 c-1 -3 -2 -32 -4 -63 l-2 -58 64 0 63 0 0 63 0 63 -60
1 c-33 0 -61 -2 -61 -6z"/>
<path d="M19760 12234 l0 -64 63 0 62 0 0 63 0 62 -63 1 -62 1 0 -63z"/>
<path d="M20139 12295 c-1 0 -3 -28 -4 -62 l-1 -63 63 0 63 0 0 63 0 63 -60 0
c-33 -1 -61 -1 -61 -1z"/>
<path d="M20510 12233 l0 -64 62 3 62 3 1 60 0 60 -62 0 -63 1 0 -63z"/>
<path d="M20886 12291 c-2 -3 -3 -31 -2 -61 l1 -55 63 -3 62 -3 0 64 0 64 -61
0 c-33 0 -61 -3 -63 -6z"/>
<path d="M21260 12234 l0 -64 63 0 63 0 -1 63 -1 62 -62 2 -62 1 0 -64z"/>
<path d="M21636 12291 c-2 -3 -3 -31 -2 -61 l1 -55 63 -3 62 -3 0 64 0 64 -60
0 c-34 0 -62 -3 -64 -6z"/>
<path d="M22010 12233 l0 -64 63 3 62 3 0 60 0 60 -63 1 -62 1 0 -64z"/>
<path d="M22389 12296 c-1 -1 -2 -29 -3 -63 l-3 -63 64 0 63 0 0 63 0 63 -60
0 c-33 0 -60 0 -61 0z"/>
<path d="M22760 12233 l0 -64 63 3 62 3 0 60 0 60 -62 1 -63 1 0 -64z"/>
<path d="M23139 12292 c-1 -4 -3 -33 -4 -64 l-2 -58 64 0 64 0 -3 63 -3 62
-57 2 c-32 1 -59 -1 -59 -5z"/>
<path d="M23510 12233 l0 -64 63 3 62 3 0 60 0 60 -63 1 -62 1 0 -64z"/>
<path d="M23887 12291 c-2 -3 -3 -31 -2 -61 l0 -55 63 -3 62 -3 0 63 0 64 -61
0 c-33 0 -61 -2 -62 -5z"/>
<path d="M24260 12233 l0 -63 60 0 60 0 0 63 0 63 -60 0 -60 1 0 -64z"/>
<path d="M2965 7852 l-30 -3 0 -2444 c0 -1345 2 -2446 5 -2446 3 -1 1101 -3
2440 -3 l2435 -2 0 146 0 145 -2275 2 c-1251 1 -2283 2 -2292 3 -17 0 -18 116
-18 2300 l0 2300 -32 1 c-167 3 -207 4 -233 1z m201 -2337 c1 -1248 2 -2278 3
-2288 0 -10 14 -23 30 -30 22 -9 548 -12 2290 -12 1804 0 2261 -2 2262 -12 1
-17 1 -72 0 -120 l-1 -38 -2368 2 c-1302 1 -2371 2 -2377 2 -7 1 -9 799 -8
2378 1 1308 2 2382 2 2386 1 4 38 7 84 5 l82 -3 1 -2270z"/>
<path d="M21173 7820 c-18 -5 -18 -85 -18 -2292 l0 -2286 -30 -4 c-16 -2
-1053 -3 -2302 -2 l-2273 0 0 -146 0 -147 2450 0 2450 0 0 2438 c0 1342 -3
2439 -7 2440 -28 4 -255 3 -270 -1z m213 -2432 c0 -1305 -3 -2375 -7 -2378 -4
-3 -1077 -5 -2386 -5 l-2378 1 -2 82 c-1 71 1 82 15 83 9 0 1038 1 2285 2
l2269 2 18 23 c18 21 18 105 19 2225 0 1211 1 2232 1 2270 l0 67 83 0 83 0 0
-2372z"/>
<path d="M12124 6060 c0 -33 2 -61 5 -61 3 -1 32 -3 64 -3 l57 -2 0 63 0 63
-63 0 -63 0 0 -60z"/>
<path d="M12131 5740 c-4 -3 -7 -31 -7 -62 l0 -58 63 0 63 0 0 60 c0 33 -3 61
-7 61 -24 4 -105 4 -112 -1z"/>
<path d="M12124 5308 l1 -63 60 0 60 0 3 63 3 62 -64 0 -63 0 0 -62z"/>
<path d="M12128 4990 c0 -3 -2 -31 -3 -62 l-2 -58 64 0 63 0 0 60 c0 33 -3 61
-7 61 -24 5 -113 4 -115 -1z"/>
<path d="M12124 4558 l1 -63 50 -1 c74 0 75 1 75 67 l0 59 -64 0 -64 0 2 -62z"/>
<path d="M12129 4245 c-1 0 -2 -28 -4 -62 l-2 -63 64 0 64 0 -3 62 -3 63 -57
0 c-32 1 -59 1 -59 0z"/>
<path d="M12125 3813 c1 -32 3 -61 4 -64 0 -3 27 -5 59 -5 l57 1 3 63 3 62
-64 0 -64 0 2 -57z"/>
<path d="M12126 3490 c-2 -3 -3 -30 -2 -60 l1 -55 63 -3 62 -3 0 61 c0 33 -3
61 -7 61 -26 5 -115 4 -117 -1z"/>
<path d="M12126 3063 c1 -32 2 -61 3 -64 0 -3 27 -5 59 -4 l57 1 3 62 3 62
-63 0 -64 0 2 -57z"/>
<path d="M12129 2746 c-1 -1 -2 -29 -4 -63 l-2 -63 63 0 64 0 0 60 c0 33 -3
60 -7 61 -12 2 -113 6 -114 5z"/>
<path d="M12127 2363 c-2 -5 -3 -33 -3 -63 l1 -55 60 0 60 0 3 63 3 62 -60 0
c-33 0 -62 -3 -64 -7z"/>
<path d="M12126 1990 c-2 -3 -3 -30 -2 -60 l1 -55 63 -3 62 -3 0 64 0 63 -61
0 c-33 -1 -62 -3 -63 -6z"/>
<path d="M12125 1568 c1 -29 3 -58 4 -63 1 -9 75 -13 114 -6 4 0 7 28 7 61 l0
60 -64 0 -63 0 2 -52z"/>
<path d="M12129 1246 c-1 -1 -2 -29 -4 -63 l-2 -63 64 0 64 0 -3 62 -3 62 -57
1 c-32 1 -59 1 -59 1z"/>
<path d="M12125 813 c1 -32 3 -61 4 -64 1 -5 81 -5 114 0 4 1 7 28 7 61 l0 60
-63 0 -64 0 2 -57z"/>
<path d="M12124 433 l1 -63 63 0 63 0 -3 63 -3 62 -61 0 -61 0 1 -62z"/>
<path d="M12124 60 l0 -60 63 0 63 0 0 60 0 60 -63 0 -63 0 0 -60z"/>
</g>
</svg>
