<?xml version="1.0" encoding="utf-8"?>
<!-- Generator: Adobe Illustrator 16.0.0, SVG Export Plug-In . SVG Version: 6.00 Build 0)  -->
<!DOCTYPE svg PUBLIC "-//W3C//DTD SVG 1.1//EN" "http://www.w3.org/Graphics/SVG/1.1/DTD/svg11.dtd">
<svg version="1.1" id="Layer_1" xmlns="http://www.w3.org/2000/svg" xmlns:xlink="http://www.w3.org/1999/xlink" x="0px" y="0px"
	 width="500px" height="180px" viewBox="0 0 500 180" enable-background="new 0 0 500 180" xml:space="preserve">
<path fill="#41C7F2" d="M132.833,42.319L82.898,83.932L36.025,38.933c-11.222,11.68-18.143,27.521-18.143,44.999
	c0,35.908,29.109,65.017,65.016,65.017c35.908,0,65.016-29.108,65.016-65.017C147.915,68.097,142.242,53.596,132.833,42.319z"/>
<path fill="#A2D8CB" d="M36.01,38.918l46.889,45.013V18.915C64.468,18.915,47.841,26.597,36.01,38.918z"/>
<path fill="#C4DC7B" d="M139.785,27.316l0.004-0.013C127.863,13.009,109.92,3.911,89.851,3.911v65.016L139.785,27.316z"/>
<path fill="#36BBED" d="M97.903,138.945c-35.908,0-65.017-29.108-65.017-65.016c0-11.083,2.78-21.514,7.671-30.646l-4.532-4.35
	c-11.222,11.68-18.143,27.521-18.143,44.999c0,35.908,29.109,65.017,65.016,65.017c16.558,0,31.659-6.199,43.138-16.392
	C117.522,136.651,107.981,138.945,97.903,138.945z"/>
<path fill="#7DCCBB" d="M54.699,25.358c-7.021,3.392-13.348,7.997-18.689,13.56l4.546,4.365
	C44.19,36.497,48.996,30.436,54.699,25.358z"/>
<path fill="#269C48" d="M260.36,75.678c7.264-7.265,19.215-12.654,26.246-10.545l0,0l0,0l0,0l0,0
	c2.107,7.03-3.049,18.981-10.546,26.246c-7.265,7.265-14.53,7.967-21.794,5.859l0,0l0,0l0,0l0,0
	C252.392,90.441,253.094,83.177,260.36,75.678z"/>
<path fill="#37B44A" d="M254.501,97.472L254.501,97.472L254.501,97.472L254.501,97.472L254.501,97.472
	c-2.109-7.265-1.407-14.529,5.859-21.793c7.264-7.265,19.215-12.654,26.246-10.545l0,0l0,0l0,0l0,0"/>
<path fill="#269C48" d="M248.642,75.678c-7.265-7.265-19.215-12.654-26.246-10.545l0,0l0,0l0,0l0,0
	c-2.109,7.03,3.046,18.981,10.545,26.246c7.264,7.265,14.529,7.967,21.793,5.859l0,0l0,0l0,0l0,0
	C256.609,90.441,255.907,83.177,248.642,75.678z"/>
<path fill="#37B44A" d="M254.501,97.472L254.501,97.472L254.501,97.472L254.501,97.472L254.501,97.472
	c2.108-7.265,1.406-14.529-5.859-21.793c-7.265-7.265-19.215-12.654-26.246-10.545l0,0l0,0l0,0l0,0"/>
<rect x="252.157" y="62.086" fill="#683514" width="4.688" height="42.182"/>
<path fill="#89471F" d="M221.927,101.924c-0.234,0-0.234,3.048-0.234,4.688c0,21.559,14.764,38.666,32.808,38.666
	c18.043,0,32.807-17.107,32.807-38.666c0-1.875-0.233-4.922-0.233-4.922h-65.147V101.924z"/>
<path fill="#683514" d="M253.461,147.811c18.044,0,32.807-17.342,32.807-38.666c0-1.874-0.232-4.921-0.468-4.921h-39.369"/>
<rect x="219.349" y="94.894" fill="#C57929" width="70.303" height="9.374"/>
<rect x="233.41" y="139.418" fill="#683514" width="42.182" height="9.374"/>
<circle fill="#05AF76" cx="254.501" cy="34.668" r="30.699"/>
<path fill="#018D62" d="M232.707,12.875c11.952-11.951,31.403-11.951,43.586,0c11.953,11.951,11.953,31.401,0,43.587"/>
<path fill="#FEF6E2" d="M252.157,59.743v-6.562c-4.687-0.234-8.202-1.172-10.545-2.577l1.641-6.796
	c2.577,1.406,5.858,2.578,9.607,2.578c3.28,0,5.624-1.406,5.624-3.749s-1.875-3.75-6.327-5.156
	c-6.327-2.109-10.311-5.155-10.311-10.779c0-5.156,3.28-9.374,10.311-10.546v-5.625h4.688v5.156c4.686,0.234,7.03,0.938,8.905,1.875
	l-1.641,6.562c-1.642-0.703-4.22-2.109-8.438-2.109c-3.749,0-5.155,1.64-5.155,3.28c0,1.875,2.109,3.281,7.03,5.156
	c7.031,2.578,9.607,5.624,9.607,11.014c0,5.155-3.515,9.842-10.545,11.014v7.031h-4.452V59.743z"/>
<g>
	<path fill="#FFEEBD" d="M254.501,10.531v11.952c0,0,0.703,0,1.171,0c4.218,0,7.029,1.406,8.438,2.109l1.405-6.562
		c-1.875-1.171-3.984-2.109-8.67-2.344v-5.156H254.501z"/>
	<path fill="#FFEEBD" d="M257.782,30.685c-1.173-0.468-2.578-0.938-3.281-1.406v8.905c2.344,1.172,4.218,2.577,4.218,4.218
		c0,1.874-1.64,3.28-4.218,3.515v13.826h2.344v-7.03c7.03-1.171,10.545-5.624,10.545-11.014
		C267.39,36.543,264.812,33.262,257.782,30.685z"/>
</g>
<polygon fill="#BEC3CC" points="418.751,93.244 418.751,69.23 413.682,69.23 413.682,93.244 388.974,110.23 391.846,114.408 
	416.217,97.652 440.588,114.408 443.459,110.23 "/>
<polygon fill="#E6B079" points="426.745,51.878 426.745,43.689 405.688,43.689 405.688,51.878 416.217,61.237 "/>
<path fill="#717588" d="M443.024,55.708l-14.476-3.406c-0.219-0.051-0.42-0.139-0.608-0.245l-11.725,6.839l-11.268-7.17
	c-0.292,0.275-0.653,0.479-1.064,0.576l-14.476,3.406c-2.114,0.497-3.608,2.383-3.608,4.555v9.163c0,1.292,1.048,2.34,2.34,2.34
	h56.152c1.292,0,2.34-1.048,2.34-2.34v-9.163C446.633,58.092,445.138,56.206,443.024,55.708z"/>
<path fill="#D29C6E" d="M405.688,43.689v8.64c13.264,4.778,21.058-7.181,21.058-7.181v-1.459H405.688z"/>
<path fill="#EFC087" d="M401.009,16.783l1.02,22.427c0.096,2.096,1.122,4.038,2.801,5.297l4.836,3.628
	c1.215,0.911,2.692,1.403,4.212,1.403h4.679c1.519,0,2.997-0.492,4.212-1.403l4.837-3.628c1.678-1.258,2.705-3.201,2.801-5.297
	l1.02-22.427H401.009z"/>
<path fill="#E6B079" d="M412.707,21.462c4.679,0,11.698-1.169,13.363-4.679h-25.062l1.019,22.427
	c0.096,2.096,1.123,4.038,2.801,5.297l4.837,3.628c1.215,0.911,2.692,1.403,4.211,1.403h2.34c-2.34,0-7.019-4.679-7.019-10.528
	c0-2.861,0-10.529,0-14.038C409.197,23.802,410.368,21.462,412.707,21.462z"/>
<g>
	<path fill="#5C5E6F" d="M438.045,64.173l7.58-6.81c0.635,0.804,1.008,1.816,1.008,2.9v9.163c0,1.292-1.048,2.339-2.341,2.339
		h-8.188v-3.241C436.104,66.864,436.81,65.283,438.045,64.173z"/>
	<path fill="#5C5E6F" d="M394.389,64.173l-7.581-6.81c-0.635,0.804-1.008,1.816-1.008,2.9v9.163c0,1.292,1.048,2.339,2.34,2.339
		h8.189v-3.241C396.33,66.864,395.624,65.283,394.389,64.173z"/>
	<polygon fill="#5C5E6F" points="419.141,71.765 413.292,71.765 414.023,61.237 418.409,61.237 	"/>
</g>
<path fill="#525363" d="M419.141,58.897h-5.849v0.676c0,1.565,1.269,2.834,2.833,2.834h0.182c1.565,0,2.834-1.269,2.834-2.834
	V58.897L419.141,58.897z"/>
<g>
	<path fill="#5C5E6F" d="M405.524,49.273l10.692,9.624c0,0-2.995,1.511-6.69,4.559c-0.763,0.628-1.916,0.374-2.324-0.526
		l-5.024-11.052l1.59-2.384C404.163,48.9,404.993,48.796,405.524,49.273z"/>
	<path fill="#5C5E6F" d="M426.909,49.273l-10.692,9.624c0,0,2.994,1.511,6.689,4.559c0.764,0.628,1.916,0.374,2.324-0.526
		l5.024-11.052l-1.589-2.384C428.27,48.9,427.44,48.796,426.909,49.273z"/>
</g>
<path fill="#795651" d="M423.309,9.033l1.097,7.75c5.006,1.001,5.728,8.857,5.832,11.102c0.018,0.407,0.148,0.8,0.369,1.143
	l1.911,2.963c0,0-0.655-4.898,2.339-8.189C434.856,23.802,435.884,4.353,423.309,9.033z"/>
<path fill="#EFC087" d="M433.69,31.49l-1.321,5.285c-0.155,0.626-0.719,1.065-1.363,1.065l0,0c-0.71,0-1.309-0.528-1.396-1.231
	l-0.676-5.405c-0.182-1.445,0.945-2.722,2.401-2.722h0.006C432.916,28.481,434.072,29.962,433.69,31.49z"/>
<path fill="#6A4C4C" d="M402.13,6.937l1.729,1.182c-7.822,5.776-6.36,15.683-6.36,15.683c2.34,2.34,2.34,8.189,2.34,8.189
	l2.339-2.34c0,0-0.902-6.758,3.51-9.358c4.095-2.413,7.678-1.17,11.333-1.17c9.798,0,12.539-3.692,12.064-8.188
	c-0.246-2.327-3.804-7.173-12.868-7.02C412.559,3.977,405.688,5.084,402.13,6.937z"/>
<path fill="#5B4247" d="M401.446,18.099c0,0-1.242-4.898,2.413-9.98c-7.822,5.776-6.36,15.683-6.36,15.683
	c2.34,2.34,2.34,8.189,2.34,8.189l2.339-2.34c0,0-0.902-6.758,3.51-9.358c4.095-2.413,7.678-1.17,11.333-1.17
	c1.594,0,2.981-0.106,4.219-0.289C413.694,19.085,409.246,13.371,401.446,18.099z"/>
<path fill="#E6B079" d="M398.742,31.49l1.321,5.285c0.156,0.626,0.719,1.065,1.364,1.065l0,0c0.709,0,1.309-0.528,1.396-1.231
	l0.676-5.405c0.181-1.445-0.946-2.722-2.402-2.722h-0.005C399.517,28.481,398.359,29.962,398.742,31.49z"/>
<path fill="#5C5E6F" d="M430.255,69.426h-5.85c-1.292,0-2.34,1.047-2.34,2.34l0,0h10.529l0,0
	C432.594,70.473,431.546,69.426,430.255,69.426z"/>
<polygon fill="#E6B079" points="388.725,130.452 388.725,122.263 367.668,122.263 367.668,130.452 378.197,139.811 "/>
<path fill="#F0F3FA" d="M405.004,134.282l-14.475-3.405c-0.219-0.051-0.42-0.139-0.608-0.245l-11.724,6.84l-11.269-7.17
	c-0.291,0.274-0.653,0.479-1.064,0.575l-14.477,3.405c-2.113,0.497-3.607,2.384-3.607,4.556V148c0,1.293,1.048,2.34,2.34,2.34
	h56.152c1.293,0,2.34-1.047,2.34-2.34v-9.162C408.612,136.666,407.118,134.779,405.004,134.282z"/>
<path fill="#D29C6E" d="M367.668,122.263v8.641c13.263,4.778,21.057-7.182,21.057-7.182v-1.459H367.668L367.668,122.263z"/>
<path fill="#EFC087" d="M362.989,95.357l1.019,22.428c0.096,2.095,1.122,4.037,2.801,5.296l4.837,3.628
	c1.215,0.911,2.692,1.403,4.212,1.403h4.679c1.519,0,2.997-0.492,4.212-1.403l4.837-3.628c1.677-1.259,2.705-3.201,2.8-5.296
	l1.021-22.428H362.989z"/>
<path fill="#E6B079" d="M374.688,100.037c4.68,0,11.697-1.17,13.362-4.68h-25.061l1.019,22.428c0.096,2.095,1.122,4.037,2.801,5.296
	l4.837,3.628c1.215,0.911,2.692,1.403,4.212,1.403h2.339c-2.339,0-7.019-4.68-7.019-10.528c0-2.86,0-10.529,0-14.039
	C371.178,102.375,372.348,100.037,374.688,100.037z"/>
<g>
	<path fill="#BEC3CC" d="M400.024,142.747l7.58-6.81c0.635,0.805,1.008,1.816,1.008,2.9v9.161c0,1.293-1.047,2.34-2.34,2.34h-8.188
		v-3.24C398.084,145.438,398.789,143.856,400.024,142.747z"/>
	<path fill="#BEC3CC" d="M356.369,142.747l-7.58-6.81c-0.636,0.805-1.008,1.816-1.008,2.9v9.161c0,1.293,1.048,2.34,2.339,2.34
		h8.189v-3.24C358.31,145.438,357.604,143.856,356.369,142.747z"/>
</g>
<polygon fill="#5C5E6F" points="381.122,150.339 375.272,150.339 376.003,139.811 380.39,139.811 "/>
<path fill="#525363" d="M381.122,137.472h-5.85v0.676c0,1.564,1.269,2.833,2.834,2.833h0.182c1.564,0,2.833-1.269,2.833-2.833
	L381.122,137.472L381.122,137.472z"/>
<g>
	<path fill="#BEC3CC" d="M367.504,127.847l10.693,9.624c0,0-2.995,1.512-6.691,4.559c-0.762,0.628-1.915,0.374-2.323-0.525
		l-5.024-11.052l1.589-2.384C366.144,127.475,366.974,127.37,367.504,127.847z"/>
	<path fill="#BEC3CC" d="M388.89,127.847l-10.692,9.624c0,0,2.994,1.512,6.69,4.559c0.762,0.628,1.915,0.374,2.324-0.525
		l5.023-11.052l-1.59-2.384C390.249,127.475,389.42,127.37,388.89,127.847z"/>
</g>
<path fill="#795651" d="M385.289,87.607l1.096,7.75c5.007,1.001,5.729,8.856,5.833,11.102c0.019,0.407,0.148,0.801,0.369,1.143
	l1.91,2.963c0,0-0.653-4.898,2.34-8.188C396.837,102.375,397.864,82.928,385.289,87.607z"/>
<path fill="#EFC087" d="M395.671,110.064l-1.321,5.284c-0.156,0.626-0.719,1.066-1.364,1.066l0,0c-0.709,0-1.308-0.529-1.396-1.232
	l-0.676-5.405c-0.181-1.445,0.945-2.723,2.403-2.723h0.005C394.896,107.055,396.053,108.536,395.671,110.064z"/>
<path fill="#6A4C4C" d="M364.109,85.511l1.73,1.182c-7.823,5.776-6.36,15.683-6.36,15.683c2.34,2.34,2.34,8.188,2.34,8.188
	l2.34-2.34c0,0-0.903-6.759,3.509-9.357c4.095-2.413,7.678-1.17,11.333-1.17c9.797,0,12.539-3.693,12.064-8.189
	c-0.246-2.326-3.804-7.173-12.868-7.019C374.538,82.551,367.668,83.659,364.109,85.511z"/>
<path fill="#5B4247" d="M363.428,96.673c0,0-1.243-4.899,2.412-9.981c-7.823,5.777-6.36,15.683-6.36,15.683
	c2.34,2.34,2.34,8.189,2.34,8.189l2.34-2.34c0,0-0.903-6.759,3.509-9.358c4.095-2.412,7.678-1.169,11.333-1.169
	c1.593,0,2.982-0.106,4.219-0.29C375.674,97.66,371.227,91.945,363.428,96.673z"/>
<path fill="#E6B079" d="M360.723,110.064l1.32,5.284c0.158,0.626,0.721,1.066,1.365,1.066l0,0c0.71,0,1.308-0.529,1.396-1.232
	l0.675-5.404c0.181-1.446-0.947-2.723-2.403-2.723h-0.004C361.496,107.055,360.341,108.536,360.723,110.064z"/>
<path fill="#E4E9F6" d="M392.235,147.999h-5.851c-1.291,0-2.339,1.048-2.339,2.34l0,0h10.529l0,0
	C394.575,149.048,393.527,147.999,392.235,147.999z"/>
<path fill="#6A4C4C" d="M456.771,83.315c-23.599,0-20.982,28.699-20.874,49.496c0.004,0.786,0.415,1.494,1.088,1.899
	c2.614,1.577,9.797,5.262,19.787,5.262c9.989,0,17.171-3.685,19.786-5.262c0.673-0.405,1.084-1.113,1.089-1.899
	C477.754,112.015,480.37,83.315,456.771,83.315z"/>
<path fill="#5B4247" d="M455.251,83.375c-21.949,1.231-19.461,29.102-19.354,49.436c0.004,0.786,0.415,1.494,1.088,1.899
	c2.614,1.577,9.797,5.262,19.787,5.262l5.964-41.746"/>
<path fill="#6A4C4C" d="M456.771,83.315c-13.418,0-14.35,16.215-14.35,16.215c7.734-1.305,12.486,1.957,20.314-1.305l-5.965,41.747
	c9.99,0,17.172-3.686,19.787-5.262c0.673-0.405,1.084-1.114,1.089-1.899C477.754,112.015,480.37,83.315,456.771,83.315z"/>
<path fill="#795651" d="M477.646,132.812c0.094-17.87,2.022-41.558-12.406-47.875c-0.251,1.308-0.707,4.958,0.478,7.326
	c2.981,5.965,5.964,5.965,8.946,10.437c2.981,16.401-5.698,33.809-8.581,36.179l0,0c5.107-1.215,8.769-3.138,10.476-4.166
	C477.23,134.306,477.642,133.598,477.646,132.812z"/>
<path fill="#E6B079" d="M479.365,137.336l-13.305-5.543c-1.11-0.464-1.835-1.55-1.835-2.754v-3.603h-14.909v3.603
	c0,1.204-0.724,2.29-1.835,2.754l-13.305,5.543c-1.666,0.694-2.752,2.322-2.752,4.128v5.964c0,1.647,1.335,2.982,2.981,2.982h44.729
	c1.647,0,2.982-1.335,2.982-2.982v-5.964C482.117,139.658,481.031,138.03,479.365,137.336z"/>
<path fill="#F0F3FA" d="M479.365,137.336l-12.863-5.36l-9.731,4.199l-9.73-4.199l-12.863,5.36c-1.667,0.694-2.752,2.322-2.752,4.128
	v5.964c0,1.647,1.334,2.982,2.981,2.982h44.729c1.646,0,2.981-1.335,2.981-2.982v-5.964
	C482.117,139.658,481.031,138.03,479.365,137.336z"/>
<path fill="#D29C6E" d="M464.226,125.436h-14.91v3.604c0,1.204-0.724,2.289-1.835,2.753l-2.078,0.865
	C461.304,136.713,464.226,125.436,464.226,125.436z"/>
<g>
	<path fill="#BEC3CC" d="M438.691,143.103l-5.985-4.76c-0.802,0.82-1.281,1.929-1.281,3.121v5.964c0,1.647,1.334,2.982,2.981,2.982
		h5.964v-3.814C440.37,145.236,439.753,143.951,438.691,143.103z"/>
	<path fill="#BEC3CC" d="M482.117,147.428v-5.964c0-1.184-0.473-2.284-1.263-3.103l-6.004,4.741
		c-1.062,0.849-1.679,2.134-1.679,3.492v3.815h5.964C480.782,150.41,482.117,149.075,482.117,147.428z"/>
	<path fill="#BEC3CC" d="M456.994,147.428h-0.446c-0.7,0-1.268-0.567-1.268-1.267v-9.982h2.981v9.982
		C458.262,146.86,457.694,147.428,456.994,147.428z"/>
	<path fill="#BEC3CC" d="M456.771,136.175l-8.533-6.399c-0.548-0.411-1.327-0.277-1.707,0.292l-1.688,2.529l5.231,7.325
		c0.398,0.557,1.183,0.665,1.717,0.238L456.771,136.175z"/>
	<path fill="#BEC3CC" d="M456.771,136.175l8.534-6.399c0.548-0.411,1.328-0.277,1.707,0.292l1.687,2.529l-5.231,7.325
		c-0.397,0.557-1.182,0.665-1.716,0.238L456.771,136.175z"/>
</g>
<path fill="#EFC087" d="M464.226,96.735c-7.455,7.454-22.085,1.491-22.085,13.418l0.926,8.785c0.18,1.967,1.317,3.716,3.042,4.675
	l8.49,4.716c1.351,0.75,2.993,0.75,4.345,0l8.488-4.716c1.725-0.959,2.864-2.708,3.043-4.675l1.068-10.434
	c0.076-0.742,0.093-1.488,0.067-2.232C471.053,102.477,465.717,99.718,464.226,96.735z"/>
<path fill="#E6B079" d="M442.141,110.153l0.926,8.785c0.18,1.967,1.317,3.716,3.042,4.675l8.49,4.716
	c0.938,0.521,2.013,0.655,3.035,0.454l0,0c0,0-4.279-1.297-6.827-8.192c-0.779-2.113-1.864-13.295-0.933-14.661
	c1.843-2.702,12.115-2.982,15.15-7.994c-0.15-0.187-0.289-0.372-0.415-0.559c-0.011-0.016-0.022-0.029-0.032-0.046
	c-0.133-0.197-0.252-0.396-0.352-0.596C456.771,104.189,442.141,98.227,442.141,110.153z"/>
<path fill="#E4E9F6" d="M467.655,147.428h-3.877c-1.4,0-2.534,1.136-2.534,2.534v0.448h8.945v-0.448
	C470.189,148.563,469.055,147.428,467.655,147.428z"/>
<g>
	<path fill="#41C7F2" d="M41.12,155.685h4.637c2.178,0,4.548,0.457,4.548,3.161c0,1.388-0.86,2.336-2.143,2.74v0.035
		c1.633,0.211,2.722,1.423,2.722,3.038c0,2.6-2.458,3.46-4.671,3.46H41.12V155.685z M43.859,160.655h1.984
		c0.843,0,1.721-0.352,1.721-1.353c0-1.036-0.983-1.3-1.844-1.3h-1.862V160.655z M43.859,165.801h2.458
		c0.861,0,1.827-0.369,1.827-1.458c0-1.177-1.317-1.369-2.213-1.369h-2.072V165.801z"/>
	<path fill="#41C7F2" d="M62.986,163.324c0,2.934-1.792,5.111-5.234,5.111c-3.459,0-5.251-2.178-5.251-5.111v-7.64h2.74v7.534
		c0,1.528,1.054,2.688,2.511,2.688c1.44,0,2.494-1.159,2.494-2.688v-7.534h2.74V163.324z"/>
	<path fill="#41C7F2" d="M71.664,158.723c-0.439-0.562-1.317-0.825-1.985-0.825c-0.772,0-1.844,0.352-1.844,1.282
		c0,2.266,5.725,0.808,5.725,5.163c0,2.775-2.23,4.093-4.794,4.093c-1.598,0-3.003-0.475-4.18-1.563l1.95-2.143
		c0.562,0.737,1.475,1.177,2.389,1.177c0.896,0,1.896-0.422,1.896-1.3c0-2.283-5.831-1.054-5.831-5.198
		c0-2.652,2.301-4.04,4.742-4.04c1.405,0,2.757,0.369,3.811,1.3L71.664,158.723z"/>
	<path fill="#41C7F2" d="M75.564,155.685h2.74v12.435h-2.74V155.685z"/>
	<path fill="#41C7F2" d="M80.798,155.685h3.723l5.287,8.641h0.035v-8.641h2.74v12.435H89l-5.427-8.852h-0.035v8.852h-2.74V155.685z"
		/>
	<path fill="#41C7F2" d="M95.219,155.685h8.448v2.529h-5.708v2.318h5.392v2.528h-5.392v2.529h6.024v2.529h-8.764V155.685z"/>
	<path fill="#41C7F2" d="M112.326,158.723c-0.439-0.562-1.317-0.825-1.985-0.825c-0.772,0-1.844,0.352-1.844,1.282
		c0,2.266,5.725,0.808,5.725,5.163c0,2.775-2.23,4.093-4.794,4.093c-1.598,0-3.003-0.475-4.18-1.563l1.95-2.143
		c0.562,0.737,1.475,1.177,2.389,1.177c0.896,0,1.896-0.422,1.896-1.3c0-2.283-5.831-1.054-5.831-5.198
		c0-2.652,2.301-4.04,4.742-4.04c1.405,0,2.757,0.369,3.811,1.3L112.326,158.723z"/>
	<path fill="#41C7F2" d="M122.408,158.723c-0.439-0.562-1.317-0.825-1.985-0.825c-0.772,0-1.844,0.352-1.844,1.282
		c0,2.266,5.725,0.808,5.725,5.163c0,2.775-2.23,4.093-4.794,4.093c-1.598,0-3.003-0.475-4.18-1.563l1.95-2.143
		c0.562,0.737,1.475,1.177,2.389,1.177c0.896,0,1.896-0.422,1.896-1.3c0-2.283-5.831-1.054-5.831-5.198
		c0-2.652,2.301-4.04,4.742-4.04c1.405,0,2.757,0.369,3.811,1.3L122.408,158.723z"/>
</g>
<g>
	<path fill="#5C5E6F" d="M354.309,155.685h3.724l5.286,8.641h0.035v-8.641h2.74v12.435h-3.583l-5.427-8.852h-0.035v8.852h-2.74
		V155.685z"/>
	<path fill="#5C5E6F" d="M368.729,155.685h8.448v2.529h-5.709v2.318h5.393v2.528h-5.393v2.529h6.024v2.529h-8.764V155.685z"/>
	<path fill="#5C5E6F" d="M382.096,158.108h-3.547v-2.424h9.834v2.424h-3.547v10.011h-2.74V158.108z"/>
	<path fill="#5C5E6F" d="M388.473,155.685h2.985l1.984,7.974h0.035l2.6-7.974h2.546l2.582,8.185h0.035l2.09-8.185h2.775
		l-3.636,12.435h-2.44l-2.74-8.605h-0.035l-2.74,8.605h-2.354L388.473,155.685z"/>
	<path fill="#5C5E6F" d="M413.378,155.368c3.882,0,6.709,2.547,6.709,6.534c0,3.986-2.827,6.533-6.709,6.533
		s-6.709-2.547-6.709-6.533C406.669,157.915,409.496,155.368,413.378,155.368z M413.378,165.906c2.336,0,3.864-1.687,3.864-4.004
		c0-2.318-1.528-4.005-3.864-4.005s-3.864,1.687-3.864,4.005C409.514,164.22,411.042,165.906,413.378,165.906z"/>
	<path fill="#5C5E6F" d="M421.95,155.685h4.812c2.547,0,4.689,0.878,4.689,3.776c0,1.738-0.93,3.091-2.687,3.407l3.161,5.251h-3.284
		l-2.6-4.971h-1.353v4.971h-2.739V155.685z M424.689,160.83h1.616c1.001,0,2.301-0.034,2.301-1.387c0-1.247-1.124-1.44-2.125-1.44
		h-1.792V160.83z"/>
	<path fill="#5C5E6F" d="M433.438,155.685h2.74v5.163l4.829-5.163h3.583l-5.532,5.778l6.007,6.656h-3.829l-5.058-5.901v5.901h-2.74
		V155.685z"/>
	<path fill="#5C5E6F" d="M445.979,155.685h2.74v12.435h-2.74V155.685z"/>
	<path fill="#5C5E6F" d="M451.213,155.685h3.723l5.287,8.641h0.035v-8.641h2.74v12.435h-3.584l-5.426-8.852h-0.035v8.852h-2.74
		V155.685z"/>
	<path fill="#5C5E6F" d="M476.785,167.241c-1.615,0.843-3.389,1.194-5.216,1.194c-3.882,0-6.709-2.547-6.709-6.533
		c0-3.987,2.827-6.534,6.709-6.534c1.968,0,3.706,0.439,4.952,1.599l-1.932,2.107c-0.737-0.772-1.633-1.177-3.021-1.177
		c-2.336,0-3.864,1.687-3.864,4.005c0,2.317,1.528,4.004,3.864,4.004c1.194,0,2.072-0.334,2.581-0.614v-2.021h-2.23v-2.528h4.865
		V167.241z"/>
</g>
<g>
	<path fill="#018D62" d="M207.081,155.685h2.74v12.435h-2.74V155.685z"/>
	<path fill="#018D62" d="M212.315,155.685h3.723l5.287,8.641h0.035v-8.641h2.74v12.435h-3.583l-5.427-8.852h-0.035v8.852h-2.74
		V155.685z"/>
	<path fill="#018D62" d="M225.4,155.685h3.126l3.074,8.149h0.035l3.126-8.149h2.933l-5.128,12.435h-2.195L225.4,155.685z"/>
	<path fill="#018D62" d="M239.101,155.685h8.448v2.529h-5.708v2.318h5.392v2.528h-5.392v2.529h6.024v2.529h-8.764V155.685z"/>
	<path fill="#018D62" d="M256.208,158.723c-0.438-0.562-1.317-0.825-1.985-0.825c-0.771,0-1.844,0.352-1.844,1.282
		c0,2.266,5.726,0.808,5.726,5.163c0,2.775-2.23,4.093-4.794,4.093c-1.599,0-3.004-0.475-4.181-1.563l1.95-2.143
		c0.562,0.737,1.475,1.177,2.389,1.177c0.895,0,1.896-0.422,1.896-1.3c0-2.283-5.831-1.054-5.831-5.198
		c0-2.652,2.301-4.04,4.741-4.04c1.406,0,2.758,0.369,3.812,1.3L256.208,158.723z"/>
	<path fill="#018D62" d="M262.549,158.108h-3.547v-2.424h9.834v2.424h-3.547v10.011h-2.74V158.108z"/>
	<path fill="#018D62" d="M270.189,155.685h2.74v12.435h-2.74V155.685z"/>
	<path fill="#018D62" d="M275.424,155.685h3.723l5.287,8.641h0.035v-8.641h2.74v12.435h-3.584l-5.426-8.852h-0.035v8.852h-2.74
		V155.685z"/>
	<path fill="#018D62" d="M300.997,167.241c-1.616,0.843-3.39,1.194-5.216,1.194c-3.882,0-6.709-2.547-6.709-6.533
		c0-3.987,2.827-6.534,6.709-6.534c1.967,0,3.705,0.439,4.952,1.599l-1.932,2.107c-0.737-0.772-1.634-1.177-3.021-1.177
		c-2.336,0-3.864,1.687-3.864,4.005c0,2.317,1.528,4.004,3.864,4.004c1.193,0,2.072-0.334,2.581-0.614v-2.021h-2.23v-2.528h4.865
		V167.241z"/>
</g>
<g>
</g>
<g>
</g>
<g>
</g>
<g>
</g>
<g>
</g>
<g>
</g>
</svg>
