<?xml version="1.0" encoding="iso-8859-1"?>
<!-- Generator: Adobe Illustrator 19.0.0, SVG Export Plug-In . SVG Version: 6.00 Build 0)  -->
<svg version="1.1" id="Layer_1" xmlns="http://www.w3.org/2000/svg" xmlns:xlink="http://www.w3.org/1999/xlink" x="0px" y="0px"
	 viewBox="0 0 509.287 509.287" style="enable-background:new 0 0 509.287 509.287;" xml:space="preserve">
<circle style="fill:#4B5AA7;" cx="254.644" cy="254.644" r="254.644"/>
<g>
	<path style="fill:#F1F3F7;" d="M412.991,445.542c-2.034,0-4.069-0.678-5.764-2.374L254.644,290.585L102.061,443.168
		c-3.052,3.052-8.138,3.052-11.189,0c-3.052-3.052-3.052-8.138,0-11.189l158.347-158.347c3.052-3.052,8.138-3.052,11.189,0
		l158.347,158.347c3.052,3.052,3.052,8.138,0,11.189C417.06,444.525,415.025,445.542,412.991,445.542z"/>
	<path style="fill:#F1F3F7;" d="M254.644,479.11c-4.408,0-7.799-3.391-7.799-7.799V279.057c0-4.408,3.391-7.799,7.799-7.799
		s7.799,3.391,7.799,7.799v191.915C262.442,475.38,259.052,479.11,254.644,479.11z"/>
	<rect x="115.963" y="44.079" style="fill:#F1F3F7;" width="277.022" height="234.638"/>
</g>
<g>
	<rect x="104.095" y="30.177" style="fill:#F0582F;" width="300.758" height="26.448"/>
	<rect x="104.095" y="265.833" style="fill:#F0582F;" width="300.758" height="26.448"/>
</g>
<g>
</g>
<g>
</g>
<g>
</g>
<g>
</g>
<g>
</g>
<g>
</g>
<g>
</g>
<g>
</g>
<g>
</g>
<g>
</g>
<g>
</g>
<g>
</g>
<g>
</g>
<g>
</g>
<g>
</g>
</svg>
