<?xml version="1.0" encoding="iso-8859-1"?>
<!-- Generator: Adobe Illustrator 19.0.0, SVG Export Plug-In . SVG Version: 6.00 Build 0)  -->
<svg version="1.1" id="Layer_1" xmlns="http://www.w3.org/2000/svg" xmlns:xlink="http://www.w3.org/1999/xlink" x="0px" y="0px"
	 viewBox="0 0 512 512" style="enable-background:new 0 0 512 512;" xml:space="preserve">
<g>
	<path style="fill:#B3B3B3;" d="M396.624,60.59l9.929,37.08c-3.994-1.714-23.417,26.943-19.532,13.245
		c2.061-7.267-8.084,0.172-13.141-8.053C368.687,78.052,396.624,60.59,396.624,60.59z"/>
	<path style="fill:#B3B3B3;" d="M444.396,82.346c0,0,7.72,32.033-13.365,46.101l-0.96,0.052
		c-21.425,9.049-25.951-13.514-18.721-26.627L444.396,82.346z"/>
</g>
<g>
	<path style="fill:#2BA5F7;" d="M246.913,0c12.293,0,22.437,9.192,23.92,21.078c12.296,23.775-13.179,24.393-25.81,27.07
		c-12.442-0.951-22.227-11.354-22.227-24.031C222.795,10.798,233.594,0,246.913,0z"/>
	<path style="fill:#2BA5F7;" d="M330.928,11.12c13.319,0,24.117,10.798,24.117,24.117s-10.798,24.117-24.117,24.117
		c-2.249,0-4.423-0.309-6.486-0.89c-0.142-6.365-12.93-4.352-15.72-9.699c-2.81-5.384,4.364-18.119-0.478-21.758
		C311.617,17.742,320.5,11.12,330.928,11.12z"/>
</g>
<polygon style="fill:#F7B239;" points="149.751,112.185 136.494,132.72 86.913,116.806 131.404,87.487 "/>
<polygon style="fill:#E09B2D;" points="149.751,112.185 136.494,132.72 86.913,116.806 "/>
<path style="fill:#F95428;" d="M216.358,142.27l-39.425,25.93l-37.968-13.525l-2.471-21.955l-5.09-45.232
	c-0.161-1.433-0.235-2.854-0.235-4.263c0-17.816,12.565-33.507,30.419-37.066c4.905-0.988,9.773-0.976,14.394-0.099
	c15.296,2.866,27.898,15.073,30.419,31.432L216.358,142.27z"/>
<path style="fill:#FFD3AE;" d="M480.13,295.969l-47.456,71.734c-29.047,43.898-49.236,92.911-59.564,144.297H156.72l-4.287-35.422
	c-2.051-16.914-11.293-32.173-25.452-41.649c-10.242-6.869-18.743-16.259-24.686-27.379c-17.903-33.507-44.331-62.246-77.208-83.002
	l-4.781-3.015C0.982,309.337-4.38,283.552,8.494,264.673l0.618-0.902c8.402-12.318,22.178-18.496,35.83-17.717
	c7.981,0.445,15.938,3.286,22.721,8.673c16.914,13.418,37.375,29.652,54.573,43.28c1.446,1.149,2.978,2.051,4.534,2.706
	c0.63,0.272,1.26,0.494,1.903,0.68c2.73,0.828,5.535,0.988,8.216,0.581c4.917-0.754,9.452-3.422,12.503-7.376
	c2.817-3.645,4.349-8.389,3.756-13.739l-14.184-126.184l26.7-4.275l50.693-8.13l10.971,71.339c0.692,4.436,7.166,4.114,7.425-0.358
	l6.252-111.876l34.439-35.148l46.339,42.66l-5.362,97.31c-0.445,7.883,10.663,10.057,13.232,2.57l19.472-56.896l37.844-3.645
	l32.198,29.912l-27.577,84.102c-2.879,8.809,8.414,15.222,14.493,8.216l15.098-17.396l39.92,1.421L480.13,295.969z"/>
<path style="fill:#B3B3B3;" d="M432.636,137.056l-13.467,41.081l-47.308-17.742l-22.734-8.525l13.146-38.388
	c2.187-6.375,5.906-11.75,10.613-15.876c6.734-5.906,15.456-9.229,24.5-9.229c4.868,0,9.835,0.964,14.616,3.015
	c4.3,1.841,8.08,4.411,11.256,7.512c6.61,6.437,10.601,15.147,11.157,24.364C434.699,127.815,434.131,132.485,432.636,137.056z"/>
<path style="fill:#EABD9B;" d="M371.861,160.395c-5.93,15.098-10.28,28.541-13.307,34.162
	c-8.649,16.062-28.899,14.208-28.899,14.208l19.472-56.896L371.861,160.395z"/>
<path style="fill:#999999;" d="M423.259,98.903c-23.796-0.334-40.352,33.421-51.398,61.492l-22.734-8.525l13.146-38.388
	c2.187-6.375,5.906-11.75,10.613-15.876c6.734-5.906,15.456-9.229,24.5-9.229c4.868,0,9.835,0.964,14.616,3.015
	C416.303,93.232,420.083,95.802,423.259,98.903z"/>
<path style="fill:#2BA5F7;" d="M324.392,61.665l-2.607,47.222l-54.709-5.09l-26.07-2.422l2.471-44.207
	c0.173-3.126,0.704-6.141,1.544-9.019c3.682-12.775,13.442-22.832,25.81-27.07c4.114-1.408,8.525-2.175,13.097-2.175
	c0.544,0,1.087,0.012,1.631,0.037c3.929,0.161,7.697,0.877,11.243,2.063c4.164,1.384,8.019,3.435,11.441,6.005
	c9.649,7.253,15.914,18.681,16.198,31.456C324.466,59.527,324.454,60.59,324.392,61.665z"/>
<path style="fill:#EABD9B;" d="M267.076,103.796c-3.324,20.596-5.622,45.615-6.128,75.935c0,24.71-6.672,34.916-26.193,33.52
	l6.252-111.876L267.076,103.796z"/>
<path style="fill:#2197D8;" d="M296.803,21.004c-9.279,11.836-22.165,35.904-29.727,82.792l-26.07-2.422l2.471-44.207
	c0.173-3.126,0.704-6.141,1.544-9.019c3.682-12.775,13.442-22.832,25.81-27.07c4.114-1.408,8.525-2.175,13.097-2.175
	c0.544,0,1.087,0.012,1.631,0.037C289.489,19.101,293.257,19.818,296.803,21.004z"/>
<path style="fill:#EABD9B;" d="M169.433,313.588c-8.216,7.042-20.732-0.47-32.544-11.614c9.452-1.446,17.507-9.958,16.259-21.115
	l-14.184-126.184l26.7-4.275C181.875,247.685,189.102,296.71,169.433,313.588z"/>
<path style="fill:#E54728;" d="M175.981,46.06v0.012c0,0-26.527,7.03-10.317,104.327l-26.7,4.275l-2.471-21.955l-5.09-45.232
	c-0.161-1.433-0.235-2.854-0.235-4.263c0-17.816,12.565-33.507,30.419-37.066C166.492,45.171,171.36,45.183,175.981,46.06z"/>
<path style="fill:#F7B239;" d="M499.379,214.956c12.38,11.107,14.752,29.615,5.572,43.49l-24.822,37.523l-58.947-42.91
	l30.456-35.114c12.281-14.147,33.779-15.493,47.728-2.99H499.379z"/>
<g>
	<path style="fill:#EABD9B;" d="M188.052,512h-31.333l-4.287-35.422c-2.051-16.914-11.293-32.173-25.452-41.649
		c-10.242-6.87-18.743-16.259-24.686-27.379c-17.903-33.507-44.33-62.246-77.208-83.002l-4.781-3.015
		C0.982,309.337-4.38,283.552,8.494,264.673l0.618-0.902c8.402-12.318,22.178-18.496,35.83-17.717c0,0-17.507,15.222,4.732,52.287
		s64.247,56.834,80.309,92.664S186.817,440.253,188.052,512z"/>
	<path style="fill:#EABD9B;" d="M290.156,422.598c-5.968-114.582-89.625-83.571-134.993-107.737
		c-1.161-0.618-17.211-8.698-26.49-13.467c2.73,0.828,5.535,0.988,8.216,0.581c4.917-0.754,9.452-3.422,12.503-7.376
		c17.025,7.821,22.585,3.991,81.161,20.757C304.611,336.556,290.156,422.598,290.156,422.598z"/>
</g>
<g>
	<circle style="fill:#4D4D4D;" cx="156.713" cy="92.714" r="9.266"/>
	<circle style="fill:#4D4D4D;" cx="266.057" cy="60.59" r="9.266"/>
	<circle style="fill:#4D4D4D;" cx="299.416" cy="62.443" r="9.266"/>
	<circle style="fill:#4D4D4D;" cx="384.049" cy="123.602" r="9.266"/>
	<circle style="fill:#4D4D4D;" cx="408.76" cy="134.103" r="9.266"/>
	<circle style="fill:#4D4D4D;" cx="482.273" cy="248.389" r="9.266"/>
	<circle style="fill:#4D4D4D;" cx="458.18" cy="231.092" r="9.266"/>
</g>
<g>
</g>
<g>
</g>
<g>
</g>
<g>
</g>
<g>
</g>
<g>
</g>
<g>
</g>
<g>
</g>
<g>
</g>
<g>
</g>
<g>
</g>
<g>
</g>
<g>
</g>
<g>
</g>
<g>
</g>
</svg>
